<svg width="233.55918304932771" height="164.33437499999997" viewBox="0 0 150 105.54137040629176" class="looka-1j8o68f"><defs id="SvgjsDefs1185"></defs><g id="SvgjsG1186" featurekey="ewgXDI-0" transform="matrix(4.164353525248702,0,0,4.164353525248702,-1.6657408143839305,6.429755711085267)" fill="#ffd460"><path d="M5.88 8.26 c-0.9 0 -0.88 0.82 -0.88 1.02 l0 0.32 l2.16 0 l0 2.6 l-2.16 0 l0 7.8 l-3.18 0 l0 -7.8 l-1.42 0 l0 -2.6 l1.42 0 l0 -0.32 c0 -3.22 2.42 -3.62 3.68 -3.62 c1 0 1.98 0.22 2.72 0.7 l-1.06 2.18 c-0.58 -0.22 -0.8 -0.28 -1.28 -0.28 z M22.48 17.36 c0.42 0 0.84 -0.1 1.26 -0.32 l0 2.62 c-0.42 0.32 -0.88 0.46 -1.68 0.46 c-1.72 0 -2.38 -1.16 -2.38 -2.54 l0 0.16 c-0.58 1.36 -1.76 2.5 -4.38 2.5 c-2.58 0 -5.36 -1.42 -5.36 -4.76 c0 -2.38 1.74 -3.64 3.02 -4.08 l-2.66 -5.4 l9.36 0 l0 2.76 l-5.04 0 l2.32 4.76 l-1.16 0 c-1.48 0 -2.62 0.88 -2.62 1.96 c0 1.3 1.02 2 2.46 2 c1 0 2.78 -0.18 2.78 -2.44 l0 -3.72 l4.74 0 l0 2.6 l-1.56 0 l0 2.38 c0 0.92 0.36 1.06 0.9 1.06 z M31.3 9.42 c2.38 0 5.12 1.78 5.12 5.36 c0 3.72 -2.74 5.42 -5.12 5.42 c-1.6 0 -2.54 -0.88 -2.68 -1.24 l0 4.84 l-3.16 0 l0 -6.02 l0 -8.18 l3.16 0 l0 0.96 c0.14 -0.22 1.08 -1.14 2.68 -1.14 z M30.840000000000003 17.42 c1.36 0 2.52 -0.92 2.52 -2.64 c0 -1.66 -1.16 -2.58 -2.52 -2.58 c-1.3 0 -2.36 0.9 -2.36 2.58 c0 1.74 1.06 2.64 2.36 2.64 z"></path></g></svg>